<?xml version="1.0" standalone="no"?>
<svg xmlns:xlink="http://www.w3.org/1999/xlink" id="wave" style="transform:rotate(0deg); transition: 0.3s" viewBox="0 0 1440 380" version="1.1" xmlns="http://www.w3.org/2000/svg"><defs><linearGradient id="sw-gradient-0" x1="0" x2="0" y1="1" y2="0"><stop stop-color="rgba(35, 33, 40, 1)" offset="0%"/><stop stop-color="rgba(35, 33, 40, 1)" offset="100%"/></linearGradient></defs><path style="transform:translate(0, 0px); opacity:1" fill="url(#sw-gradient-0)" d="M0,190L40,209C80,228,160,266,240,259.7C320,253,400,203,480,177.3C560,152,640,152,720,177.3C800,203,880,253,960,247C1040,241,1120,177,1200,164.7C1280,152,1360,190,1440,183.7C1520,177,1600,127,1680,114C1760,101,1840,127,1920,145.7C2000,165,2080,177,2160,209C2240,241,2320,291,2400,278.7C2480,266,2560,190,2640,171C2720,152,2800,190,2880,209C2960,228,3040,228,3120,240.7C3200,253,3280,279,3360,291.3C3440,304,3520,304,3600,253.3C3680,203,3760,101,3840,95C3920,89,4000,177,4080,221.7C4160,266,4240,266,4320,253.3C4400,241,4480,215,4560,196.3C4640,177,4720,165,4800,145.7C4880,127,4960,101,5040,114C5120,127,5200,177,5280,215.3C5360,253,5440,279,5520,259.7C5600,241,5680,177,5720,145.7L5760,114L5760,380L5720,380C5680,380,5600,380,5520,380C5440,380,5360,380,5280,380C5200,380,5120,380,5040,380C4960,380,4880,380,4800,380C4720,380,4640,380,4560,380C4480,380,4400,380,4320,380C4240,380,4160,380,4080,380C4000,380,3920,380,3840,380C3760,380,3680,380,3600,380C3520,380,3440,380,3360,380C3280,380,3200,380,3120,380C3040,380,2960,380,2880,380C2800,380,2720,380,2640,380C2560,380,2480,380,2400,380C2320,380,2240,380,2160,380C2080,380,2000,380,1920,380C1840,380,1760,380,1680,380C1600,380,1520,380,1440,380C1360,380,1280,380,1200,380C1120,380,1040,380,960,380C880,380,800,380,720,380C640,380,560,380,480,380C400,380,320,380,240,380C160,380,80,380,40,380L0,380Z"/></svg>