<?xml version="1.0" standalone="no"?>
<svg xmlns:xlink="http://www.w3.org/1999/xlink" id="wave" style="transform:rotate(180deg); transition: 0.3s" viewBox="0 0 1440 270" version="1.1" xmlns="http://www.w3.org/2000/svg"><defs><linearGradient id="sw-gradient-0" x1="0" x2="0" y1="1" y2="0"><stop stop-color="rgba(35, 33, 40, 1)" offset="0%"/><stop stop-color="rgba(35, 33, 40, 1)" offset="100%"/></linearGradient></defs><path style="transform:translate(0, 0px); opacity:1" fill="url(#sw-gradient-0)" d="M0,108L20,103.5C40,99,80,90,120,99C160,108,200,135,240,121.5C280,108,320,54,360,36C400,18,440,36,480,58.5C520,81,560,108,600,130.5C640,153,680,171,720,171C760,171,800,153,840,126C880,99,920,63,960,49.5C1000,36,1040,45,1080,54C1120,63,1160,72,1200,103.5C1240,135,1280,189,1320,175.5C1360,162,1400,81,1440,67.5C1480,54,1520,108,1560,112.5C1600,117,1640,72,1680,76.5C1720,81,1760,135,1800,130.5C1840,126,1880,63,1920,67.5C1960,72,2000,144,2040,144C2080,144,2120,72,2160,72C2200,72,2240,144,2280,184.5C2320,225,2360,234,2400,216C2440,198,2480,153,2520,135C2560,117,2600,126,2640,135C2680,144,2720,153,2760,148.5C2800,144,2840,126,2860,117L2880,108L2880,270L2860,270C2840,270,2800,270,2760,270C2720,270,2680,270,2640,270C2600,270,2560,270,2520,270C2480,270,2440,270,2400,270C2360,270,2320,270,2280,270C2240,270,2200,270,2160,270C2120,270,2080,270,2040,270C2000,270,1960,270,1920,270C1880,270,1840,270,1800,270C1760,270,1720,270,1680,270C1640,270,1600,270,1560,270C1520,270,1480,270,1440,270C1400,270,1360,270,1320,270C1280,270,1240,270,1200,270C1160,270,1120,270,1080,270C1040,270,1000,270,960,270C920,270,880,270,840,270C800,270,760,270,720,270C680,270,640,270,600,270C560,270,520,270,480,270C440,270,400,270,360,270C320,270,280,270,240,270C200,270,160,270,120,270C80,270,40,270,20,270L0,270Z"/></svg>